<?xml version="1.0" encoding="utf-8"?>
<!-- Generator: Adobe Illustrator 25.0.0, SVG Export Plug-In . SVG Version: 6.00 Build 0)  -->
<svg version="1.1" id="Layer_1" xmlns="http://www.w3.org/2000/svg" xmlns:xlink="http://www.w3.org/1999/xlink" x="0px" y="0px"
	 viewBox="0 0 195.12 187.76" style="enable-background:new 0 0 195.12 187.76;" xml:space="preserve">
<style type="text/css">
	.st0{fill:#999999;}
</style>
<g>
	<path class="st0" d="M36.07,4.97c34.28,0,68.55,0,102.83,0c0.02,0.06,0.03,0.15,0.05,0.16c6.87,1.35,10.18,7.24,10.1,13.69
		c-0.22,17.42-0.08,34.85-0.08,52.27c0,0.63,0,1.26,0,1.98c-0.44-0.08-0.78-0.11-1.11-0.19c-6.33-1.59-12.7-1.78-19.08-0.36
		c-25.6,5.71-41.42,35.57-27.54,60.69c0.34,0.62,0.51,1.23,0.51,1.96c-0.03,7-0.07,14.01,0.01,21.01c0.02,1.42-0.43,1.65-1.72,1.65
		c-20.09-0.04-40.18-0.02-60.27-0.03c-8.07,0-13.09-5.03-13.09-13.1c0-19.74,0-39.48,0-59.22c0-22.58,0-45.16,0-67.73
		c0-6.07,2.89-10.18,8.57-12.28C35.56,5.38,36,5.44,36.07,4.97z M83.69,43.88c7.81,0,15.61,0.02,23.42-0.01
		c3.26-0.01,5.7-2.4,5.73-5.49c0.03-3.09-2.4-5.6-5.61-5.61c-15.73-0.03-31.46-0.01-47.19-0.01c-1.32,0-2.5,0.43-3.51,1.26
		c-1.84,1.49-2.5,3.87-1.73,6.09c0.78,2.25,2.8,3.74,5.29,3.75C67.96,43.89,75.82,43.88,83.69,43.88z M83.65,55
		c-7.69,0-15.38-0.01-23.07,0c-3.55,0-6.05,2.26-6.08,5.48c-0.04,3.28,2.49,5.63,6.12,5.63c15.38,0.01,30.76,0.01,46.15,0
		c3.55,0,6.05-2.28,6.09-5.49c0.04-3.28-2.49-5.62-6.12-5.62C99.03,54.99,91.34,55,83.65,55z M73.93,88.34c4.45,0,8.9,0.01,13.35,0
		c3.62-0.01,6.15-2.36,6.11-5.64c-0.04-3.2-2.55-5.47-6.09-5.47c-8.9-0.01-17.8-0.01-26.7,0c-3.63,0-6.14,2.33-6.1,5.63
		c0.04,3.2,2.54,5.47,6.09,5.49C65.03,88.36,69.48,88.34,73.93,88.34z"/>
	<path class="st0" d="M137.87,82.79c16.85,0.01,30.56,13.73,30.55,30.58c-0.01,16.84-13.75,30.56-30.59,30.56
		c-16.83-0.01-30.56-13.75-30.55-30.59C107.29,96.49,121.02,82.78,137.87,82.79z M151.76,105.28c-0.03-2.34-1.58-4.41-3.88-5.2
		c-2.17-0.74-4.62-0.07-6.01,1.89c-2.08,2.91-4.02,5.92-6.03,8.88c-0.74,1.1-1.31,2.82-2.3,3.11c-1.14,0.33-2.26-1.26-3.44-1.93
		c-0.1-0.06-0.2-0.12-0.3-0.18c-2.74-1.65-5.92-1.02-7.65,1.53c-1.75,2.58-1.12,5.89,1.58,7.75c2.7,1.87,5.44,3.7,8.21,5.47
		c2.83,1.81,5.97,1.17,7.87-1.65c3.65-5.4,7.25-10.84,10.86-16.27C151.34,107.66,151.83,106.55,151.76,105.28z"/>
	<path class="st0" d="M162.87,146.9c0,0.53,0,0.98,0,1.42c0,9.38,0.01,18.75,0,28.13c-0.01,5.42-4.29,7.93-8.98,5.27
		c-4.82-2.74-9.65-5.45-14.41-8.29c-1.23-0.73-2.1-0.66-3.28,0.04c-4.72,2.79-9.5,5.48-14.27,8.19c-4.81,2.73-9.08,0.26-9.08-5.26
		c-0.01-9.78,0-19.56,0-29.5C129.48,157.79,146.04,157.82,162.87,146.9z"/>
</g>
</svg>
