<?xml version="1.0" encoding="utf-8"?>
<!-- Generator: Adobe Illustrator 25.0.0, SVG Export Plug-In . SVG Version: 6.00 Build 0)  -->
<svg version="1.1" id="Layer_1" xmlns="http://www.w3.org/2000/svg" xmlns:xlink="http://www.w3.org/1999/xlink" x="0px" y="0px"
	 viewBox="0 0 195.12 187.76" style="enable-background:new 0 0 195.12 187.76;" xml:space="preserve">
<style type="text/css">
	.st0{fill:#999999;}
</style>
<g>
	<g>
		<path class="st0" d="M154.38,21.68c-5.58,4.28-11.15,8.51-16.66,12.8c-0.96,0.75-1.48,0.03-2.1-0.37
			c-8.59-5.41-17.86-9.05-27.95-10.31c-24.9-3.12-46.23,4.33-62.9,23.04c-30.29,34-21.5,86.05,17.97,108.73
			c40.73,23.41,93.65,0.11,103.91-45.75c2.48-11.06,2.45-22.09-0.41-33.08c-0.32-1.24-0.18-2.15,0.64-3.2
			c4.71-6.03,9.33-12.14,14.04-18.29c17.53,35.43,9.63,86.27-31.29,114.66C110.45,197.09,55.56,189,25.89,151.73
			c-30.6-38.44-26.47-93,9.73-125.95C71.21-6.62,122.53-4.46,154.38,21.68z"/>
		<path class="st0" d="M97.68,132.79c-13.53,0.09-24.84-11.2-24.81-24.76c0.03-13.69,11.45-24.91,25.1-24.68
			c0.22,0,0.46-0.04,0.66,0.03c3.64,1.33,6.06-0.55,8.7-2.81c22.16-19.02,44.39-37.97,66.96-56.51c1.54-1.26,3.05-2.55,5.11-2.94
			c3.15-0.59,5.38,1.37,5.15,4.57c-0.15,2.1-1.32,3.7-2.58,5.26c-12.52,15.49-25.39,30.68-38.29,45.85
			c-6.74,7.92-13.48,15.84-20.29,23.7c-1.19,1.37-1.67,2.59-1.41,4.49C123.96,119.64,112.49,132.69,97.68,132.79z"/>
		<path class="st0" d="M90.49,37.27c-0.04-3.96,3.13-7.17,7.09-7.16c3.83,0.01,7.03,3.15,7.08,6.98c0.05,3.89-3.22,7.2-7.11,7.19
			C93.72,44.26,90.53,41.09,90.49,37.27z"/>
		<path class="st0" d="M62.14,44.33c-0.03-3.96,3.15-7.15,7.11-7.14c3.83,0.02,7.02,3.18,7.05,7c0.04,3.9-3.24,7.19-7.14,7.16
			C65.35,51.33,62.17,48.16,62.14,44.33z"/>
		<path class="st0" d="M125.9,37.19c3.83-0.01,7.04,3.13,7.1,6.95c0.07,3.89-3.19,7.21-7.09,7.21c-3.91,0-7.12-3.27-7.08-7.2
			C118.88,40.32,122.04,37.2,125.9,37.19z"/>
		<path class="st0" d="M47.89,58.45c3.93-0.03,7.19,3.21,7.16,7.12c-0.03,3.81-3.22,7.01-7.03,7.05c-3.91,0.04-7.15-3.22-7.13-7.15
			C40.9,61.61,44.03,58.48,47.89,58.45z"/>
		<path class="st0" d="M33.8,93.93c-0.03-3.96,3.16-7.15,7.12-7.13c3.83,0.02,7.01,3.18,7.05,7.01c0.03,3.9-3.24,7.18-7.14,7.16
			C37,100.94,33.82,97.75,33.8,93.93z"/>
		<path class="st0" d="M147.18,93.83c0.02-3.94,3.26-7.1,7.22-7.03c3.82,0.06,6.97,3.29,6.95,7.11c-0.02,3.81-3.21,7.02-7.02,7.06
			C150.42,101,147.16,97.75,147.18,93.83z"/>
	</g>
</g>
</svg>
