<?xml version="1.0" encoding="utf-8"?>
<!-- Generator: Adobe Illustrator 25.0.0, SVG Export Plug-In . SVG Version: 6.00 Build 0)  -->
<svg version="1.1" id="Layer_1" xmlns="http://www.w3.org/2000/svg" xmlns:xlink="http://www.w3.org/1999/xlink" x="0px" y="0px"
	 viewBox="0 0 195.12 187.76" style="enable-background:new 0 0 195.12 187.76;" xml:space="preserve">
<style type="text/css">
	.st0{fill:#999999;}
</style>
<g>
	<g>
		<path class="st0" d="M131.89,162.95c0,2.67-0.06,5.33,0.03,8c0.03,1.04-0.37,1.45-1.27,1.8c-15.83,6.07-32.08,7.81-48.81,4.86
			c-5.96-1.05-11.74-2.69-17.38-4.88c-0.6-0.23-1.37-0.27-1.33-1.33c0.21-6.3-0.38-12.62,0.38-18.91
			c1.79-14.95,14.42-27.59,29.33-29.36c18.67-2.22,34.76,9.41,38.48,27.76C132.11,154.88,131.85,158.92,131.89,162.95z"/>
		<path class="st0" d="M69.4,94.58c0.03,12.04-9.72,21.88-21.75,21.94c-12.1,0.06-22-9.8-21.99-21.89
			c0.01-12.02,9.81-21.83,21.84-21.84C59.53,72.77,69.37,82.56,69.4,94.58z"/>
		<path class="st0" d="M97.23,116.52c-12.01-0.15-21.69-10.06-21.57-22.11c0.11-12.08,10.13-21.81,22.26-21.62
			c12.01,0.19,21.64,10.14,21.47,22.2C119.23,107,109.28,116.66,97.23,116.52z"/>
		<path class="st0" d="M147.56,72.79c12.03,0.02,21.82,9.82,21.82,21.86c0.01,12.1-9.9,21.94-22.01,21.88
			c-12.02-0.07-21.77-9.93-21.72-21.97C125.69,82.54,135.53,72.77,147.56,72.79z"/>
		<path class="st0" d="M138.21,169.34c-0.29-5.78,0.26-11.32-0.38-16.83c-0.97-8.31-4.21-15.61-9.69-21.9
			c-0.77-0.88-0.87-1.24,0.19-1.98c13.92-9.81,34.77-6.88,45.42,6.43c0.46,0.58,0.84,0.99,0.3,1.83
			C165.05,150.83,153.2,161.62,138.21,169.34z"/>
		<path class="st0" d="M56.9,169.33c-9.72-4.92-18.08-11.21-25.36-18.92c-3.85-4.08-7.26-8.49-10.33-13.18
			c-0.62-0.95-0.53-1.48,0.16-2.32c10.81-13.14,31.07-16.02,45.15-6.42c1.13,0.77,1.22,1.14,0.27,2.24
			c-6.48,7.52-9.77,16.28-9.89,26.21C56.86,160.97,56.9,165,56.9,169.33z"/>
		<path class="st0" d="M118.49,30.74c-3.33,2.66-6.51,5.22-9.7,7.77c-2.01,1.61-2.27,2.43-1.45,4.89c1.15,3.49,2.33,6.97,3.61,10.83
			c-3.82-1.85-7.33-3.45-10.74-5.24c-1.92-1-3.6-1.02-5.52,0c-3.36,1.79-6.82,3.38-10.58,5.23c1.2-3.63,2.28-6.93,3.37-10.23
			c1.1-3.33,1-3.7-1.81-5.94c-2.99-2.39-5.97-4.79-9.25-7.42c4.08-0.97,7.81-1.95,11.59-2.71c2.03-0.41,3.34-1.36,4.21-3.27
			c1.57-3.41,3.37-6.73,5.07-10.1c0.76,0.14,0.77,0.83,1.01,1.3c1.46,2.9,2.97,5.77,4.3,8.73c0.85,1.91,2.12,2.92,4.19,3.3
			c3.57,0.67,7.1,1.58,10.64,2.39C117.73,30.36,118,30.53,118.49,30.74z"/>
	</g>
	<path class="st0" d="M97.56,3.17c-50.1,0-90.71,40.61-90.71,90.71s40.61,90.71,90.71,90.71s90.71-40.61,90.71-90.71
		S147.66,3.17,97.56,3.17z M97.56,179c-47.01,0-85.12-38.11-85.12-85.12c0-47.01,38.11-85.12,85.12-85.12
		c47.01,0,85.12,38.11,85.12,85.12C182.68,140.89,144.57,179,97.56,179z"/>
</g>
</svg>
