<?xml version="1.0" encoding="utf-8"?>
<!-- Generator: Adobe Illustrator 25.0.0, SVG Export Plug-In . SVG Version: 6.00 Build 0)  -->
<svg version="1.1" id="Layer_1" xmlns="http://www.w3.org/2000/svg" xmlns:xlink="http://www.w3.org/1999/xlink" x="0px" y="0px"
	 viewBox="0 0 195.12 187.76" style="enable-background:new 0 0 195.12 187.76;" xml:space="preserve">
<style type="text/css">
	.st0{fill:#999999;}
</style>
<g>
	<path class="st0" d="M185.43,142.27c-0.78,1.36-0.69,2.93-0.99,4.39c-3.68,17.48-18.76,31.33-36.51,33.41
		c-13.58,1.59-25.39-2.28-35.38-11.63c-1.9-1.78-2.11-3.72-0.65-5.22c1.46-1.51,3.32-1.35,5.27,0.44
		c15.04,13.87,37.28,13.64,51.19-0.85c9.88-10.29,12.89-22.69,8.6-36.27c-4.31-13.63-13.92-22.05-28.02-24.77
		c-17.77-3.42-35.06,6.8-40.98,23.88c-0.2,0.58-0.42,1.16-0.65,1.76c0.55,0.35,0.84-0.25,1.26-0.48c1.45-0.82,3.17-0.57,4.22,0.62
		c1.09,1.22,1.28,3,0.12,4.23c-2.66,2.83-5.42,5.58-8.24,8.25c-1.19,1.12-3,1.01-4.22-0.16c-2.68-2.57-5.32-5.19-7.89-7.88
		c-1.3-1.35-1.15-3.38,0.14-4.62c1.25-1.2,3.15-1.28,4.5-0.05c0.88,0.8,1.62,1.76,2.62,2.87c0.58-2.18,1-3.99,1.55-5.75
		c5.8-18.49,23.9-31.05,42.77-30.09c20.17,1.03,36.71,15.44,40.55,34.94c0.22,1.13,0.12,2.34,0.75,3.38
		C185.43,135.87,185.43,139.07,185.43,142.27z"/>
	<path class="st0" d="M83.17,123.63c-1.43,2.94-1.81,5.84-1.25,8.84c0.6,3.17,2.3,5.72,4.71,7.76c2.22,1.87,3.25,4.14,3.75,7.01
		c1.78,10.22,6.42,19.07,13.5,26.64c0.43,0.46,0.89,0.9,1.24,1.42c1.44,2.14,0.22,4.82-2.34,5.13c-0.62,0.08-1.26,0.06-1.88,0.06
		c-28.77,0-57.54,0-86.31,0c-0.51,0-1.03,0-1.54-0.02c-1.45-0.04-2.5-0.7-3.07-2.06c-0.59-1.38-0.24-2.6,0.75-3.62
		c2.02-2.1,3.96-4.28,5.67-6.65c7.29-10.09,10.83-21.38,10.82-33.82c-0.02-40.72-0.01-81.44-0.01-122.16c0-0.57-0.03-1.15,0.02-1.72
		c0.15-1.77,1.3-2.93,3.07-3.11c0.57-0.06,1.14-0.05,1.71-0.05c39.86,0,79.73,0,119.59,0c0.57,0,1.15-0.01,1.71,0.04
		c1.74,0.16,2.83,1.15,3.1,2.88c0.1,0.62,0.08,1.25,0.08,1.88c0,22.82,0,45.64,0,68.46c0,0.46,0.02,0.92-0.01,1.37
		c-0.17,2.38-1.6,3.64-3.98,3.39c-2.16-0.23-4.29-0.63-6.46-0.77c-11.99-0.79-22.96,2.23-32.95,8.84c-1.06,0.7-2.08,0.99-3.33,0.99
		c-18.19-0.03-36.38-0.02-54.56-0.02c-0.68,0-1.38-0.01-2.05,0.11c-1.67,0.28-2.81,1.57-2.86,3.16c-0.05,1.6,1.16,3.09,2.84,3.38
		c0.61,0.11,1.25,0.07,1.88,0.08c15.56,0,31.11,0,46.67,0c0.62,0,1.24,0,2.14,0c-0.78,0.93-1.41,1.68-2.05,2.44
		c-2.71,3.19-5.06,6.64-6.83,10.43c-1,2.14-2.43,3.04-4.81,3.02c-11.78-0.07-23.56-0.03-35.35-0.03c-0.74,0-1.48-0.05-2.2,0.22
		c-1.53,0.57-2.33,1.71-2.26,3.28c0.08,1.56,0.93,2.69,2.54,3.04c0.66,0.14,1.36,0.16,2.04,0.16c8.75,0.01,17.5,0.01,26.25,0.01
		C81.77,123.63,82.39,123.63,83.17,123.63z M91.91,71.83c-11.89,0-23.78,0-35.67,0c-0.97,0-1.95-0.04-2.91,0.04
		c-1.71,0.13-2.97,1.47-3.04,3.14c-0.07,1.68,1.24,3.21,2.97,3.41c0.51,0.06,1.03,0.03,1.54,0.03c24.69,0,49.38,0,74.08,0
		c0.51,0,1.03,0.03,1.54-0.03c1.69-0.2,2.9-1.56,2.92-3.25c0.02-2.08-1.39-3.33-3.88-3.33C116.95,71.82,104.43,71.83,91.91,71.83z
		 M91.92,55.87c12.29,0,24.58,0,36.87,0c0.85,0,1.72,0.09,2.54-0.25c1.47-0.61,2.27-2.17,1.94-3.79c-0.33-1.67-1.68-2.59-3.89-2.59
		c-25.04,0-50.07-0.01-75.11,0c-2.43,0-3.97,1.29-4,3.27c-0.03,2,1.5,3.31,3.92,3.35c0.4,0.01,0.8,0,1.2,0
		C67.57,55.87,79.75,55.87,91.92,55.87z"/>
	<path class="st0" d="M139.07,124.65c0-4.06-0.01-8.12,0-12.18c0.01-2.44,1.29-3.89,3.37-3.86c2,0.03,3.24,1.44,3.24,3.8
		c0.02,7.38,0.03,14.75-0.02,22.13c-0.01,1.07,0.31,1.8,1.06,2.53c3.23,3.16,6.41,6.36,9.6,9.57c1.7,1.71,1.89,3.72,0.52,5.14
		c-1.47,1.53-3.41,1.39-5.25-0.45c-3.73-3.71-7.43-7.45-11.17-11.15c-0.96-0.95-1.38-2.01-1.37-3.36
		C139.1,132.77,139.07,128.71,139.07,124.65z"/>
</g>
</svg>
