<?xml version="1.0" encoding="utf-8"?>
<!-- Generator: Adobe Illustrator 25.0.0, SVG Export Plug-In . SVG Version: 6.00 Build 0)  -->
<svg version="1.1" id="Layer_1" xmlns="http://www.w3.org/2000/svg" xmlns:xlink="http://www.w3.org/1999/xlink" x="0px" y="0px"
	 viewBox="0 0 675 696.69" style="enable-background:new 0 0 675 696.69;" xml:space="preserve">
<style type="text/css">
	.st0{fill:#3E3459;}
	.st1{fill:#FFFFFF;}
</style>
<g>
	<path class="st0" d="M657.81,348.34c0,176.91-143.41,320.31-320.31,320.31S17.19,525.25,17.19,348.34S160.59,28.03,337.5,28.03
		S657.81,171.44,657.81,348.34z"/>
	<g>
		<path class="st1" d="M337.59,486.28c-40.25,0-80.49-0.08-120.74,0.11c-4.66,0.02-6.16-0.93-6.01-5.87
			c0.64-20.17-1.36-40.46,3.86-60.36c6.45-24.59,19.92-43.86,41.91-57.06c3.6-2.16,5.57-1.87,8.55,1.01
			c41.7,40.33,102.74,40.42,144.54,0.07c3.51-3.39,5.66-2.86,9.08-0.79c25.91,15.63,39.38,39.23,43.85,68.5
			c2.59,16.93,1,34.02,1.45,51.03c0.13,5.02-3.48,3.29-5.76,3.3C418.08,486.3,377.83,486.28,337.59,486.28z"/>
		<path class="st1" d="M336.98,371.2c-44.52-0.2-80.17-36.53-79.98-81.52c0.18-43.99,36.77-79.74,81.36-79.5
			c44.15,0.25,79.91,36.7,79.65,81.19C417.75,335.63,381.44,371.4,336.98,371.2z"/>
	</g>
</g>
</svg>
