<?xml version="1.0" encoding="utf-8"?>
<!-- Generator: Adobe Illustrator 25.0.0, SVG Export Plug-In . SVG Version: 6.00 Build 0)  -->
<svg version="1.1" id="Layer_1" xmlns="http://www.w3.org/2000/svg" xmlns:xlink="http://www.w3.org/1999/xlink" x="0px" y="0px"
	 viewBox="0 0 195.12 187.76" style="enable-background:new 0 0 195.12 187.76;" xml:space="preserve">
<style type="text/css">
	.st0{fill:#999999;}
</style>
<path class="st0" d="M189.69,133.86v49.01c0,1.73-1.4,3.13-3.13,3.13h-49.01c-1.73,0-3.13-1.4-3.13-3.13v-49.01
	c0-1.73,1.4-3.13,3.13-3.13h15.29v-27.64h-46.06v27.64h15.29c1.73,0,3.13,1.4,3.13,3.13v49.01c0,1.73-1.4,3.13-3.13,3.13H73.05
	c-1.73,0-3.13-1.4-3.13-3.13v-49.01c0-1.73,1.4-3.13,3.13-3.13h15.29v-27.64H42.28v27.64h15.29c1.73,0,3.13,1.4,3.13,3.13v49.01
	c0,1.73-1.4,3.13-3.13,3.13H8.57c-1.73,0-3.13-1.4-3.13-3.13v-49.01c0-1.73,1.4-3.13,3.13-3.13h15.29V93.88
	c0-5.09,4.13-9.21,9.21-9.21h55.28V57.03H63.84c-1.73,0-3.13-1.4-3.13-3.13V4.89c0-1.73,1.4-3.13,3.13-3.13h67.44
	c1.73,0,3.13,1.4,3.13,3.13V53.9c0,1.73-1.4,3.13-3.13,3.13h-24.51v27.64h55.28c5.09,0,9.21,4.12,9.21,9.21v36.85h15.29
	C188.28,130.73,189.69,132.13,189.69,133.86z"/>
</svg>
