<?xml version="1.0" encoding="utf-8"?>
<!-- Generator: Adobe Illustrator 25.0.0, SVG Export Plug-In . SVG Version: 6.00 Build 0)  -->
<svg version="1.1" id="Layer_1" xmlns="http://www.w3.org/2000/svg" xmlns:xlink="http://www.w3.org/1999/xlink" x="0px" y="0px"
	 viewBox="0 0 195.12 187.76" style="enable-background:new 0 0 195.12 187.76;" xml:space="preserve">
<style type="text/css">
	.st0{fill:#999999;}
</style>
<g>
	<g>
		<path class="st0" d="M61.49,86.41c-2.47-1.03-4.94-1.44-7.41-1.44c0.62-0.21,1.44-0.21,2.06-0.21
			C58.2,84.77,59.84,85.38,61.49,86.41z"/>
		<path class="st0" d="M185.05,143.25c0-0.2,0-0.62-0.21-0.82v-0.82C185.05,142.22,185.05,142.63,185.05,143.25z"/>
		<circle class="st0" cx="97.6" cy="47.39" r="41.38"/>
	</g>
	<path class="st0" d="M185.05,143.25c0.21,3.91,0,7.83-0.41,11.74c-0.82,8.65-5.56,15.65-13.59,20.59
		c-6.8,4.32-14.62,6.18-22.86,6.18H46.67c-8.24-0.21-15.86-1.85-22.65-6.18c-8.03-4.94-12.77-11.94-13.59-20.59
		c-0.41-4.12-0.62-8.44-0.21-12.56v-3.5c0.21-1.44,0.41-2.88,0.41-4.32c0.62-5.35,1.85-10.91,3.5-16.06
		c0.82-3.09,2.06-5.97,3.29-8.85c0.82-1.85,1.85-3.91,3.09-5.77c2.88-4.53,6.18-8.44,10.3-11.33c1.65-1.24,3.71-2.47,5.77-3.5
		c3.91-2.06,8.44-3.3,13.59-3.91c1.24-0.21,2.68-0.21,3.91-0.21c2.47,0,4.94,0.41,7.41,1.44c0.82,0.2,1.65,0.62,2.47,1.24
		c2.26,1.44,4.74,2.88,7.21,4.12c2.68,1.44,5.56,2.88,8.24,3.91c3.91,1.44,7.83,2.27,11.53,2.88c4.32,0.62,8.85,0.62,13.18,0
		c3.5-0.41,7-1.24,10.5-2.68c0.82-0.21,1.65-0.41,2.47-0.82c2.26-0.82,4.32-1.85,6.59-3.09c3.09-1.85,6.18-3.5,9.27-5.35
		c0.2-0.2,0.41-0.2,0.62-0.2c2.26-1.03,4.74-1.44,7.41-1.44c1.24,0,2.68,0,4.12,0.21c4.53,0.41,8.85,1.65,12.97,3.71
		c0.21,0,0.21,0.21,0.41,0.21c2.06,1.03,4.12,2.26,5.77,3.5c6.18,4.53,10.3,10.5,13.39,17.09c1.24,2.88,2.47,5.77,3.29,8.65
		c0,0.21,0.21,0.21,0.21,0.41c0.82,2.68,1.65,5.56,2.06,8.44c1.03,4.12,1.44,8.24,1.65,12.56v2.68
		C185.05,142.63,185.05,143.04,185.05,143.25z"/>
	<path class="st0" d="M10.22,141.19v1.24c-0.21,0.21-0.21,0.62-0.21,0.82C10.01,142.63,10.01,141.81,10.22,141.19z"/>
	<path class="st0" d="M140.98,84.97c-2.68,0-5.15,0.41-7.41,1.44c1.65-1.03,3.5-1.65,5.56-1.65
		C139.74,84.77,140.36,84.77,140.98,84.97z"/>
</g>
</svg>
