<?xml version="1.0" encoding="utf-8"?>
<!-- Generator: Adobe Illustrator 25.0.0, SVG Export Plug-In . SVG Version: 6.00 Build 0)  -->
<svg version="1.1" id="Layer_1" xmlns="http://www.w3.org/2000/svg" xmlns:xlink="http://www.w3.org/1999/xlink" x="0px" y="0px"
	 viewBox="0 0 195.12 187.76" style="enable-background:new 0 0 195.12 187.76;" xml:space="preserve">
<style type="text/css">
	.st0{fill:#999999;}
</style>
<g>
	<g>
		<path class="st0" d="M20.75,185.79c-3.17-1.46-4.04-3.97-3.97-7.37c0.63-33.04,25.71-62.22,58.33-67.72
			c4.02-0.68,8.06-1.04,12.14-1.03c7.18,0.01,14.36-0.05,21.54,0.02c31.25,0.31,58.76,21.55,67.01,51.71
			c1.57,5.73,2.43,11.57,2.55,17.51c0.08,4-0.79,5.37-4.28,6.87C122.96,185.79,71.85,185.79,20.75,185.79z"/>
		<path class="st0" d="M97.55,98.91C70.85,98.89,49.1,77.1,49.11,50.4c0.02-26.7,21.8-48.45,48.5-48.43
			c26.71,0.02,48.45,21.79,48.44,48.5C146.04,77.17,124.25,98.93,97.55,98.91z"/>
	</g>
</g>
</svg>
